<?xml version="1.0" encoding="UTF-8" standalone="no"?>
<svg
   xmlns:dc="http://purl.org/dc/elements/1.1/"
   xmlns:cc="http://creativecommons.org/ns#"
   xmlns:rdf="http://www.w3.org/1999/02/22-rdf-syntax-ns#"
   xmlns:svg="http://www.w3.org/2000/svg"
   xmlns="http://www.w3.org/2000/svg"
   version="1.1"
   id="svg2"
   viewBox="0 0 72 24"
   height="24"
   width="72">
  <defs
     id="defs4" />
  <metadata
     id="metadata7">
    <rdf:RDF>
      <cc:Work
         rdf:about="">
        <dc:format>image/svg+xml</dc:format>
        <dc:type
           rdf:resource="http://purl.org/dc/dcmitype/StillImage" />
        <dc:title></dc:title>
      </cc:Work>
    </rdf:RDF>
  </metadata>
  <g
     transform="translate(0,-1028.3622)"
     id="layer1">
    <rect
       ry="0"
       y="1033.8864"
       x="4.5241041"
       height="1.9517912"
       width="16.951792"
       id="rect3340"
       style="fill:#000000;fill-opacity:1;fill-rule:evenodd;stroke:#000000;stroke-width:1.04820883;stroke-linecap:butt;stroke-linejoin:miter;stroke-miterlimit:4;stroke-dasharray:none;stroke-opacity:1" />
    <rect
       ry="0"
       y="1039.8864"
       x="4.5241041"
       height="1.9517913"
       width="16.951792"
       id="rect3340-3"
       style="fill:#000000;fill-opacity:1;fill-rule:evenodd;stroke:#000000;stroke-width:1.04820871;stroke-linecap:butt;stroke-linejoin:miter;stroke-miterlimit:4;stroke-dasharray:none;stroke-opacity:1" />
    <rect
       ry="0"
       y="1045.8862"
       x="4.5241041"
       height="1.9517913"
       width="16.951792"
       id="rect3340-3-6"
       style="fill:#000000;fill-opacity:1;fill-rule:evenodd;stroke:#000000;stroke-width:1.04820871;stroke-linecap:butt;stroke-linejoin:miter;stroke-miterlimit:4;stroke-dasharray:none;stroke-opacity:1" />
    <path
       id="path3402"
       d="m 26.000005,1046.3622 0,-12 3,0 2,3 1,0 2.000005,-3 3,0 0,12 -3,0 0,-7 -2.000005,2 -1,0 -2,-2 0,7"
       style="fill:#000000;fill-opacity:1;fill-rule:evenodd;stroke:#000000;stroke-width:0;stroke-linecap:butt;stroke-linejoin:miter;stroke-miterlimit:4;stroke-dasharray:none;stroke-opacity:1" />
    <path
       id="path4214"
       d="m 39.00001,1046.3622 0,-12 8,0 0,2 -5,0 0,3 4,0 0,2 -4,0 0,3 5,0 0,2 z"
       style="fill:#000000;fill-opacity:1;fill-rule:evenodd;stroke:#000000;stroke-width:0;stroke-linecap:butt;stroke-linejoin:miter;stroke-miterlimit:4;stroke-dasharray:none;stroke-opacity:1" />
    <path
       id="path4216"
       d="m 49.00001,1046.3622 0,-12 0.999995,0 5,5 5e-6,-5 3,0 0,12 -1.000005,0 -5,-5 5e-6,5 z"
       style="fill:#000000;fill-opacity:1;fill-rule:evenodd;stroke:#000000;stroke-width:0;stroke-linecap:butt;stroke-linejoin:miter;stroke-miterlimit:4;stroke-dasharray:none;stroke-opacity:1" />
    <path
       id="path4222"
       d="m 63.00001,1034.3622 -3,0 0,8 c -5e-6,4 2.999995,4 4,4 l 2,0 c 0.999995,0 3.999995,0 4,-4 l 0,-8 -3,0 0,8 c -5e-6,1 -1,1 -2,1 -1,0 -2.039914,0 -2.019566,-1.0196 0.01957,-0.9804 0.01957,-7.9804 0.01957,-7.9804"
       style="fill:#000000;fill-opacity:1;fill-rule:evenodd;stroke:#000000;stroke-width:0;stroke-linecap:butt;stroke-linejoin:miter;stroke-miterlimit:4;stroke-dasharray:none;stroke-opacity:1" />
  </g>
</svg>
